<?xml version="1.0" encoding="utf-8"?>
<!-- Generator: Adobe Illustrator 24.3.0, SVG Export Plug-In . SVG Version: 6.00 Build 0)  -->
<svg version="1.1" id="Layer_1" xmlns="http://www.w3.org/2000/svg" xmlns:xlink="http://www.w3.org/1999/xlink" x="0px" y="0px"
	 viewBox="0 0 512 512" style="enable-background:new 0 0 512 512;" xml:space="preserve">
<style type="text/css">
	.Round_x0020_Corners_x0020_2_x0020_pt{fill:#FFFFFF;stroke:#231F20;stroke-miterlimit:10;}
	.Live_x0020_Reflect_x0020_X{fill:none;}
	.Bevel_x0020_Soft{fill:url(#SVGID_1_);}
	.Dusk{fill:#FFFFFF;}
	.Foliage_GS{fill:#FFDD00;}
	.Pompadour_GS{fill-rule:evenodd;clip-rule:evenodd;fill:#44ADE2;}
	.st0{fill:#231F20;}
</style>
<linearGradient id="SVGID_1_" gradientUnits="userSpaceOnUse" x1="0" y1="0" x2="0.7071" y2="0.7071">
	<stop  offset="0" style="stop-color:#DEDFE3"/>
	<stop  offset="0.1783" style="stop-color:#DADBDF"/>
	<stop  offset="0.3611" style="stop-color:#CECFD3"/>
	<stop  offset="0.546" style="stop-color:#B9BCBF"/>
	<stop  offset="0.7324" style="stop-color:#9CA0A2"/>
	<stop  offset="0.9181" style="stop-color:#787D7E"/>
	<stop  offset="1" style="stop-color:#656B6C"/>
</linearGradient>
<g>
	<g>
		<path class="st0" d="M256.5,509.2c-67.5,0-131-26.3-178.7-74.2c-47.7-47.8-74-111.4-74-179s26.3-131.2,74-179
			C125.5,29.1,189,2.8,256.5,2.8s131,26.3,178.7,74.2c47.7,47.8,74,111.4,74,179s-26.3,131.2-74,179
			C387.5,482.9,324,509.2,256.5,509.2z M256.5,39.2C137.2,39.2,40.2,136.5,40.2,256s97,216.8,216.3,216.8S472.8,375.5,472.8,256
			S375.8,39.2,256.5,39.2z"/>
	</g>
	<g>
		<path d="M255.8,118.9V173c0,2.1-1.6,3.8-3.6,3.9l-21,0.2l-17.7,0.3c-2.9,0-4.5,3.6-2.9,6.1l31.1,47c14.9,22.5,28,42.2,33.4,50.3
			c1.4,2.1,4.2,2.1,5.7,0.1c5.6-7.8,18.4-26.8,33-49.3l31.2-48.2c1.6-2.5,0-6-2.9-6.1l-17.8-0.3l-21-0.2c-2,0-3.6-1.7-3.6-3.9v-54.1
			v-54c0-2.1-1.6-3.9-3.6-3.9h-18.4h-18.4c-2,0-3.6,1.7-3.6,3.9V118.9z M114.9,176.8v7.3c0,2.1,1.6,3.9,3.6,3.9H131
			c15.6,0,16.2,0.1,16.8,3.1c0.6,3.6,22.6,157.5,22.6,159c0,0.7,46.5,1.1,103.4,1.1s103.4-0.1,103.4-0.4c0-0.3,0.9-7,1.9-15.1
			c1-8,4.8-37.8,8.4-66.1c3.5-28.5,6.9-54,7.2-56.9l0.1-0.7c0.4-2.4-1.3-4.5-3.5-4.5h-6.9c-6.1,0-11.1,0.4-11.1,1
			c0,1.8-13.1,109.8-13.7,113l0,0c-0.3,1.9-1.8,3.2-3.5,3.2h-82.3h-82.3c-1.7,0-3.2-1.4-3.5-3.2l0,0c-0.4-1.7-5-33.5-10.5-70.7
			s-10.5-71.6-11.1-76.4l-0.9-5.5c-0.3-1.8-1.8-3.2-3.5-3.2h-22.1h-21.5c-2,0-3.6,1.7-3.6,3.9V176.8z M201.6,369.4
			c-17.2,5.6-26.5,25.7-19.6,42.5c3.7,8.9,7.1,12.8,15,16.7c11.2,5.7,20.3,4,30.4-6c15.6-15.2,13.1-38.1-5.7-49.9
			C215.3,368.7,207.7,367.5,201.6,369.4z M332.2,369.4c-17.2,5.6-26.5,25.7-19.6,42.5c3.7,8.9,7.1,12.8,15,16.7
			c8.7,4.5,15.5,4.3,23.9-0.6c16.3-9.1,21.5-28.7,11.8-45.1C357.1,372.7,342.4,366.1,332.2,369.4z"/>
	</g>
</g>
</svg>
