<svg width="0" height="0" class="hidden">
  <symbol xmlns="http://www.w3.org/2000/svg" viewBox="0 0 512 512" id="store-menu">
    <path d="M256.5 509.2c-67.5 0-131-26.3-178.7-74.2-47.7-47.8-74-111.4-74-179s26.3-131.2 74-179C125.5 29.1 189 2.8 256.5 2.8s131 26.3 178.7 74.2c47.7 47.8 74 111.4 74 179s-26.3 131.2-74 179c-47.7 47.9-111.2 74.2-178.7 74.2zm0-470C137.2 39.2 40.2 136.5 40.2 256s97 216.8 216.3 216.8S472.8 375.5 472.8 256s-97-216.8-216.3-216.8z" fill="#231f20"></path>
    <path d="M255.8 118.9V173c0 2.1-1.6 3.8-3.6 3.9l-21 .2-17.7.3c-2.9 0-4.5 3.6-2.9 6.1l31.1 47c14.9 22.5 28 42.2 33.4 50.3 1.4 2.1 4.2 2.1 5.7.1 5.6-7.8 18.4-26.8 33-49.3l31.2-48.2c1.6-2.5 0-6-2.9-6.1l-17.8-.3-21-.2c-2 0-3.6-1.7-3.6-3.9V64.8c0-2.1-1.6-3.9-3.6-3.9h-36.8c-2 0-3.6 1.7-3.6 3.9v54.1zm-140.9 57.9v7.3c0 2.1 1.6 3.9 3.6 3.9H131c15.6 0 16.2.1 16.8 3.1.6 3.6 22.6 157.5 22.6 159 0 .7 46.5 1.1 103.4 1.1s103.4-.1 103.4-.4c0-.3.9-7 1.9-15.1 1-8 4.8-37.8 8.4-66.1 3.5-28.5 6.9-54 7.2-56.9l.1-.7c.4-2.4-1.3-4.5-3.5-4.5h-6.9c-6.1 0-11.1.4-11.1 1 0 1.8-13.1 109.8-13.7 113-.3 1.9-1.8 3.2-3.5 3.2H191.5c-1.7 0-3.2-1.4-3.5-3.2-.4-1.7-5-33.5-10.5-70.7s-10.5-71.6-11.1-76.4l-.9-5.5c-.3-1.8-1.8-3.2-3.5-3.2h-43.6c-2 0-3.6 1.7-3.6 3.9v7.2zm86.7 192.6c-17.2 5.6-26.5 25.7-19.6 42.5 3.7 8.9 7.1 12.8 15 16.7 11.2 5.7 20.3 4 30.4-6 15.6-15.2 13.1-38.1-5.7-49.9-6.4-4-14-5.2-20.1-3.3zm130.6 0c-17.2 5.6-26.5 25.7-19.6 42.5 3.7 8.9 7.1 12.8 15 16.7 8.7 4.5 15.5 4.3 23.9-.6 16.3-9.1 21.5-28.7 11.8-45.1-6.2-10.2-20.9-16.8-31.1-13.5z"></path>
  </symbol>
</svg>